Coordinates
version=1
nRows=5
nColumns=40
inDegrees=yes

Units are S.I. units (second, meters, Newtons, ...)
Angles are in degrees.

endheader
time	pelvis_tilt	pelvis_list	pelvis_rotation	pelvis_tx	pelvis_ty	pelvis_tz	hip_flexion_r	hip_adduction_r	hip_rotation_r	knee_angle_r	knee_angle_r_beta	ankle_angle_r	subtalar_angle_r	mtp_angle_r	hip_flexion_l	hip_adduction_l	hip_rotation_l	knee_angle_l	knee_angle_l_beta	ankle_angle_l	subtalar_angle_l	mtp_angle_l	lumbar_extension	lumbar_bending	lumbar_rotation	arm_flex_r	arm_add_r	arm_rot_r	elbow_flex_r	pro_sup_r	wrist_flex_r	wrist_dev_r	arm_flex_l	arm_add_l	arm_rot_l	elbow_flex_l	pro_sup_l	wrist_flex_l	wrist_dev_l
      3.63928571	     -3.99438116	     -4.35943930	      4.32014943	      0.80940711	      0.93359839	      0.46527826	      8.94981572	      3.33050940	    -17.43344571	     11.59585773	     11.59585773	      8.85120514	      0.69465375	     -6.54585359	     32.57526641	     -9.47490873	      0.11080163	     48.46432323	     48.46432323	     12.15467693	    -18.68862120	     15.87931287	     -8.85856953	      6.01526379	      4.61242010	     45.24388461	    -20.51141926	      1.05246927	    106.20891403	     44.16811287	      0.00000000	      0.00000000	     19.69408653	    -11.03262861	     14.10875253	     69.68673818	     47.07744126	      0.00000000	      0.00000000
      3.65107143	     -4.16630671	     -4.28216117	      4.71450813	      0.80817665	      0.93342447	      0.46493986	      8.55359120	      3.30881415	    -17.48197311	     11.28766486	     11.28766486	      9.06200041	      0.43794157	     -6.59348386	     32.91071497	     -8.84311392	      0.50087869	     45.08968867	     45.08968867	     11.71254700	    -18.39385430	     15.41825610	     -8.82591627	      5.92684573	      4.45123370	     47.76424060	    -20.47649658	      1.21100293	    106.74222859	     44.17758664	      0.00000000	      0.00000000	     18.73039190	    -10.92552240	     14.67760753	     66.88265441	     46.98331577	      0.00000000	      0.00000000
      3.66285714	     -4.36749335	     -4.21640621	      5.07178306	      0.80694335	      0.93304556	      0.46459352	      8.26467678	      3.27694728	    -17.53850473	     11.12713733	     11.12713733	      9.36911379	      0.14252756	     -6.70225900	     33.12015119	     -8.24584972	      0.82310623	     41.49004000	     41.49004000	     10.72224078	    -17.95416606	     13.53574813	     -8.73209965	      5.77653421	      4.70295062	     50.12091596	    -21.01120327	      1.20481438	    106.91314649	     44.23842508	      0.00000000	      0.00000000	     18.24403845	    -10.48730268	     15.39237822	     63.63921508	     46.87111959	      0.00000000	      0.00000000
      3.67464286	     -4.51964045	     -4.15627718	      5.43564463	      0.80578651	      0.93263041	      0.46416407	      7.96587854	      3.22898854	    -17.60544942	     11.07607736	     11.07607736	      9.72711272	     -0.13170212	     -6.76413725	     33.26539137	     -7.59707265	      1.31320643	     38.01955698	     38.01955698	     10.46618366	    -17.16115811	     13.44455534	     -8.79386562	      5.64497687	      4.52955490	     52.37041591	    -20.86836557	      1.07831404	    107.51925408	     44.24673428	      0.00000000	      0.00000000	     17.16052045	    -10.57551010	     15.81568498	     62.05862222	     46.80317900	      0.00000000	      0.00000000
      3.68642857	     -4.74361927	     -4.16350367	      5.78108226	      0.80468142	      0.93193520	      0.46368154	      7.78060916	      3.23342522	    -17.71174150	     11.09113321	     11.09113321	     10.15570066	     -0.35076958	     -6.71492782	     33.40883392	     -7.06622868	      1.69424124	     34.51459086	     34.51459086	      9.71450332	    -16.09663519	     11.80692717	     -8.64419711	      5.60594422	      4.46376722	     54.65995018	    -20.91750383	      1.28641628	    107.14748689	     44.30118986	      0.00000000	      0.00000000	     16.63130400	    -10.36106351	     16.45897875	     59.03585544	     46.69626385	      0.00000000	      0.00000000
